<svg width="365" height="375" viewBox="-15 -10 365 375" xmlns="http://www.w3.org/2000/svg">
<path d="M180.062 0.791746C242.023 -4.78758 297.588 19.3929 339.176 64.7182C323.557 79.9786 306.308 95.4491 290.328 110.651C265.86 83.7247 237.976 69.0398 201.464 66.6096C134.716 62.1673 78.0159 107.448 74.8007 175.9C73.2038 205.248 83.3767 234.026 103.065 255.848C145.047 301.759 218.384 304.839 267.962 269.074C273.262 265.253 278.054 260.906 282.84 256.467L291.067 247.901C305.588 259.626 324.859 278.32 339.056 291.362L338.726 291.754C300.257 337.058 248.124 358.195 189.517 358.287C141.731 358.361 97.3997 345.031 60.6124 313.632C25.7423 284.284 4.12852 242.151 0.628586 196.706C-8.06773 86.4213 74.5729 8.71007 180.062 0.791746Z" fill="#163E75"/>
</svg>
